<svg xmlns="http://www.w3.org/2000/svg"  viewBox="0 0 100 100" width="100px" height="100px"><path fill="#b9d2e8" d="M42.75,46.375l0.375-14.125c0,0,11.125,9.5,20,10.625s11.625-0.25,11.625-0.25l0.875-8 c0,0,4.625,1.375,3.5,7.375s-1.75,12.125-1.75,12.125s-2.875,3.125-3.625,3.5S64.5,59.75,64.5,59.75L42.75,46.375z"/><polygon fill="#f15b6c" points="25,80.25 25.25,49.75 42.5,51.375 42,80"/><path fill="#ae5ca3" d="M24.625,28.375c0,0-1.875-1.125-3.25,4.25s0.5,16.125,0.5,16.125l3.5,3c0,0,7.625,6,17.625,9.125 s18.25,14.875,19.625,19.5H79.5c0,0,1.75-10.125-8.875-18.75S45.25,47.5,43.125,46.75S25.5,40.25,24.75,35.625L24.625,28.375z"/><path fill="#78a1d1" d="M24.75,36.875l0.375-18.625L41.75,18l0.125,1.75L58.5,19.875C58.5,19.875,72,22,75,33 c0,0,1,7-0.5,10c0,0-9.75,2-15.625-1.5c0,0,1.375-7-7.25-9.25h-8.5L42.75,46.375C42.75,46.375,30.5,42.75,24.75,36.875z"/><defs><rect id="5Oe1f4couxTW1lDeOCEvTa" width="72.927" height="73.075" x="134.073" y="-105.075"/></defs><path fill="#25262f" d="M78.567,69.324c-1.526-2.53-4.167-6.113-8.377-9.572c2.912-0.645,7.573-2.357,8.537-6.789 c0.008-0.036,0.014-0.073,0.017-0.109l1.379-13.309c0.006-0.131,0.098-3.156-3.592-5.763c-0.41-1.924-2.569-9.328-12.025-13.208 c-2.748-1.128-5.797-1.699-9.063-1.699H43V18c0-0.553-0.448-1-1-1H25c-0.552,0-1,0.447-1,1v9.368 c-3.437,1.802-3.735,5.037-3.75,5.257l0.001,12.931c0.224,4.022,2.763,6.74,3.749,7.649V80c0,0.553,0.448,1,1,1h17 c0.552,0,1-0.447,1-1V62.492c16.074,6.876,18.624,17.61,18.647,17.718c0.099,0.461,0.506,0.79,0.978,0.79H80c0.552,0,1-0.447,1-1 v-1.908C81,74.995,80.159,71.963,78.567,69.324z M76.761,52.589c-1.119,4.898-9.003,5.533-9.083,5.539 c-0.272,0.02-0.511,0.156-0.681,0.356c-3.365-2.323-8.869-5.973-13.438-8.185c-2.629-1.272-5.353-2.383-8.098-3.3 c-0.543-0.181-1.071-0.362-1.587-0.541v-9.731c0.053,0.018,0.101,0.054,0.155,0.054c0.147,0,0.292-0.064,0.391-0.188 c0.173-0.216,0.138-0.53-0.078-0.703c-0.175-0.141-0.321-0.26-0.468-0.381v-1.706c3.938,3.144,14.062,10.322,24.416,10.322 c0.071,0,0.143,0,0.214-0.001c4.801-0.046,7.95-0.952,9.413-2.679L76.761,52.589z M58,40.958C52.046,38.619,46.982,34.97,44.49,33 H51c3.86,0,7,3.141,7,7V40.958z M77.626,37.82c0.198,0.567,0.412,1.588-0.15,2.558c-0.318,0.548-0.928,1.145-2.054,1.643 c0.604-1.983,0.583-4.311,0.373-6.288C76.729,36.471,77.292,37.204,77.626,37.82z M26,27.977V19h15v0.875c0,0.553,0.448,1,1,1 h13.443c3.004,0,5.798,0.521,8.304,1.549c8.362,3.432,10.381,9.812,10.793,11.613c0.404,2.337,0.73,5.893-0.337,8.416 c-1.349,0.385-3.187,0.649-5.708,0.673c-0.067,0.001-0.132,0.001-0.199,0.001c-2.805,0-5.617-0.567-8.296-1.447V40 c0-4.963-4.037-9-9-9h-8.125c-0.552,0-1,0.447-1,1v13.739C32.111,42.141,27.763,39.006,26,37.394v-9.372 C26,28.007,26,27.992,26,27.977z M41,79H26V52.868c2.956,2.326,7.654,4.994,15.104,7.696C41.039,60.698,41,60.846,41,61V79z M79,79h-1.04c-0.027-0.353-0.067-0.709-0.123-1.067c-0.042-0.272-0.301-0.457-0.57-0.418c-0.273,0.042-0.46,0.297-0.418,0.57 c0.047,0.307,0.082,0.613,0.107,0.915H63.382c-0.917-2.856-5.127-12.653-21.015-18.93c-0.062-0.025-0.126-0.038-0.191-0.05 c-0.058-0.098-0.143-0.181-0.258-0.222c-13.164-4.702-17.632-9.247-19.147-11.893c-0.273-0.725-0.472-1.528-0.521-2.406 l-0.002-8.682c0.177-0.137,0.252-0.376,0.158-0.59c-0.07-0.159-0.11-0.288-0.158-0.427l-0.001-3.088 c0.008-0.084,0.185-1.698,1.754-2.965v6.523c0,0.034,0.016,0.064,0.02,0.097c-0.035,0.127-0.021,0.267,0.052,0.388 c0.127,0.213,3.319,5.261,21.074,11.191c2.705,0.902,5.388,1.997,7.979,3.251c6.654,3.221,11.225,6.804,13.846,8.543 c0.055,0.07,0.116,0.136,0.191,0.19c5.035,3.679,8.051,7.699,9.694,10.425C78.258,72.685,79,75.359,79,78.092V79z"/><path fill="#25262f" d="M74.65,45.319c-1.074,0.355-2.414,0.597-3.982,0.716c-0.275,0.021-0.481,0.262-0.46,0.537 c0.02,0.263,0.239,0.462,0.498,0.462c0.013,0,0.026,0,0.039-0.001c1.649-0.127,3.07-0.384,4.221-0.765 c0.262-0.087,0.404-0.369,0.317-0.632C75.196,45.375,74.914,45.232,74.65,45.319z"/><path fill="#25262f" d="M58.591,44.196c-1.242-0.463-2.517-1.013-3.792-1.635c-0.25-0.12-0.547-0.018-0.668,0.229 c-0.122,0.248-0.018,0.548,0.23,0.669c1.303,0.637,2.609,1.199,3.881,1.674c0.058,0.021,0.116,0.031,0.175,0.031 c0.202,0,0.394-0.124,0.468-0.325C58.981,44.581,58.85,44.293,58.591,44.196z"/><path fill="#25262f" d="M66.57,46.057c-1.302-0.102-2.663-0.32-4.044-0.65c-0.267-0.064-0.538,0.102-0.603,0.37 c-0.064,0.269,0.102,0.538,0.37,0.603c1.433,0.343,2.845,0.569,4.2,0.674c0.013,0.002,0.026,0.002,0.039,0.002 c0.259,0,0.478-0.199,0.498-0.461C67.052,46.318,66.846,46.077,66.57,46.057z"/><path fill="#25262f" d="M51.158,40.595c-1.167-0.69-2.341-1.442-3.49-2.236c-0.228-0.159-0.538-0.101-0.695,0.127 s-0.101,0.538,0.127,0.695c1.168,0.808,2.362,1.573,3.549,2.275c0.08,0.047,0.167,0.069,0.254,0.069 c0.171,0,0.337-0.088,0.431-0.245C51.475,41.042,51.396,40.735,51.158,40.595z"/><path fill="#25262f" d="M54.778,53.896c-0.419-0.207-0.826-0.406-1.22-0.597c-0.735-0.355-1.477-0.701-2.224-1.035 c-0.252-0.112-0.548,0.001-0.66,0.253c-0.113,0.253,0,0.548,0.253,0.661c0.738,0.328,1.47,0.67,2.196,1.021 c0.39,0.188,0.794,0.386,1.211,0.593c0.071,0.035,0.146,0.052,0.221,0.052c0.184,0,0.361-0.102,0.449-0.278 C55.127,54.318,55.026,54.019,54.778,53.896z"/><path fill="#25262f" d="M40.639,48.332c-1.208-0.449-2.386-0.916-3.502-1.387c-0.255-0.106-0.548,0.012-0.655,0.267 s0.012,0.548,0.267,0.655c1.129,0.477,2.321,0.948,3.542,1.402c0.057,0.021,0.117,0.031,0.174,0.031 c0.203,0,0.394-0.124,0.469-0.326C41.03,48.716,40.898,48.429,40.639,48.332z"/><path fill="#25262f" d="M47.8,50.812c-0.775-0.288-1.556-0.562-2.343-0.814c-0.428-0.139-0.848-0.275-1.261-0.413 c-0.261-0.089-0.545,0.055-0.632,0.316c-0.087,0.263,0.055,0.546,0.316,0.633c0.416,0.138,0.839,0.276,1.27,0.415 c0.773,0.249,1.54,0.517,2.301,0.801c0.058,0.021,0.116,0.031,0.175,0.031c0.202,0,0.394-0.124,0.468-0.325 C48.19,51.197,48.059,50.909,47.8,50.812z"/><path fill="#25262f" d="M61.508,57.462c-1.028-0.593-2.152-1.21-3.34-1.837c-0.244-0.128-0.547-0.035-0.675,0.209 c-0.129,0.244-0.036,0.547,0.209,0.676c1.176,0.62,2.289,1.232,3.306,1.819c0.079,0.045,0.165,0.066,0.25,0.066 c0.173,0,0.341-0.09,0.434-0.25C61.829,57.906,61.747,57.601,61.508,57.462z"/><path fill="#25262f" d="M75.104,70.709c-0.139-0.239-0.445-0.32-0.684-0.182s-0.32,0.445-0.181,0.684 c0.657,1.131,1.205,2.254,1.628,3.337c0.077,0.197,0.266,0.317,0.466,0.317c0.061,0,0.122-0.011,0.182-0.034 c0.257-0.101,0.384-0.391,0.283-0.648C76.357,73.053,75.787,71.884,75.104,70.709z"/><path fill="#25262f" d="M64.767,59.46c-0.231-0.153-0.541-0.088-0.693,0.142c-0.152,0.229-0.089,0.54,0.142,0.692 c1.221,0.808,2.223,1.557,2.976,2.228c0.095,0.085,0.214,0.127,0.333,0.127c0.138,0,0.274-0.057,0.374-0.168 c0.184-0.206,0.165-0.521-0.041-0.705C67.066,61.072,66.027,60.294,64.767,59.46z"/><path fill="#25262f" d="M70.548,64.529c-0.185-0.205-0.501-0.224-0.706-0.036c-0.205,0.185-0.222,0.501-0.037,0.706 c0.84,0.932,1.639,1.906,2.374,2.896c0.098,0.133,0.249,0.202,0.402,0.202c0.104,0,0.208-0.032,0.297-0.099 c0.222-0.165,0.269-0.478,0.104-0.699C72.228,66.484,71.408,65.484,70.548,64.529z"/><path fill="#25262f" d="M24.479,39.17c-0.191-0.201-0.507-0.208-0.707-0.017c-0.2,0.19-0.207,0.507-0.017,0.706 c0.811,0.851,1.795,1.703,2.924,2.536c0.089,0.066,0.193,0.098,0.296,0.098c0.153,0,0.305-0.07,0.402-0.203 c0.164-0.223,0.117-0.535-0.105-0.699C26.19,40.792,25.25,39.978,24.479,39.17z"/><path fill="#25262f" d="M33.711,45.393c-1.18-0.576-2.294-1.17-3.311-1.763c-0.238-0.142-0.545-0.059-0.684,0.18 s-0.059,0.545,0.18,0.684c1.038,0.606,2.174,1.211,3.376,1.798c0.071,0.034,0.146,0.051,0.219,0.051 c0.186,0,0.363-0.104,0.45-0.28C34.062,45.813,33.959,45.514,33.711,45.393z"/></svg>